# xmcd
#
# Track frame offsets: 
#        182
#        18335
#        39872
#        64455
#
# Disc length: 1153 seconds
#
# Revision: 5
# Processed by: cddbd v1.5.2PL0 Copyright (c) Steve Scherf et al.
# Submitted via: ExactAudioCopy v1.3
#
DISCID=2b047f04
DTITLE=Genesis - I Can't Dance
DYEAR=1991
DGENRE=Rock
TTITLE0=I Can't Dance
TTITLE1=On The Shoreline
TTITLE2=In Too Deep (Live)
TTITLE3=That's All (Live)
EXTD=
EXTT0=
EXTT1=
EXTT2=
EXTT3=
PLAYORDER=
